<?xml version="1.0" encoding="utf-8" ?><!DOCTYPE svg PUBLIC "-//W3C//DTD SVG 1.1//EN" "http://www.w3.org/Graphics/SVG/1.1/DTD/svg11.dtd"><svg width="280px" height="280px" viewBox="-6 0 274 280" version="1.1" xmlns="http://www.w3.org/2000/svg" xmlns:xlink="http://www.w3.org/1999/xlink"><desc>Py-Avataaars</desc> <g id="x41" stroke="none" stroke-width="1" fill="none" fill-rule="evenodd"><defs><circle id="x24" cx="120" cy="120" r="120"/><path id="x19" d="M12,160 C12,226.27417 65.72583,280 132,280 C198.27417,280 252,226.27417 252,160 L264,160 L264,-1.42108547e-14 L-3.19744231e-14,-1.42108547e-14 L-3.19744231e-14,160 L12,160 Z"/><path id="x22" d="M124,144.610951 L124,163 L128,163 L128,163 C167.764502,163 200,195.235498 200,235 L200,244 L0,244 L0,235 C-4.86974701e-15,195.235498 32.235498,163 72,163 L72,163 L76,163 L76,144.610951 C58.7626345,136.422372 46.3722246,119.687011 44.3051388,99.8812385 C38.4803105,99.0577866 34,94.0521096 34,88 L34,74 C34,68.0540074 38.3245733,63.1180731 44,62.1659169 L44,56 L44,56 C44,25.072054 69.072054,5.68137151e-15 100,0 L100,0 L100,0 C130.927946,-5.68137151e-15 156,25.072054 156,56 L156,62.1659169 C161.675427,63.1180731 166,68.0540074 166,74 L166,88 C166,94.0521096 161.51969,99.0577866 155.694861,99.8812385 C153.627775,119.687011 141.237365,136.422372 124,144.610951 Z"/></defs><g id="x39" transform="translate(-825,-1100)"><g transform="translate(825,1100)"> <g id="x35" stroke-width="1" fill-rule="evenodd" transform="translate(12,40)"><mask id="x17" fill="#FFFFFF"><use xlink:href="#x24"/></mask><use id="x34" fill="#E6E6E6" xlink:href="#x24"/><g id="x37" mask="url('#x17')" fill="#FF5C5C"><rect id="x38" x="0" y="0" width="240" height="240"/></g></g> <mask id="x25" fill="#FFFFFF"><use xlink:href="#x19"/></mask> <g id="x40" stroke-width="1" fill-rule="evenodd" mask="url('#x25')"><g id="x36" transform="translate(32,36)"><mask id="x16" fill="#FFFFFF"><use xlink:href="#x22"/></mask><use fill="#D0C6AC" xlink:href="#x22"/><g id="x12" mask="url('#x16')" fill="#FD9841"><g transform="translate(0,0)" id="x13"><rect x="0" y="0" width="264" height="280"/></g></g> <path id="x33" d="M156,79 L156,102 C156,132.927946 130.927946,158 100,158 C69.072054,158 44,132.927946 44,102 L44,79 L44,94 C44,124.927946 69.072054,150 100,150 C130.927946,150 156,124.927946 156,94 L156,79 Z" fill-opacity="0.1" fill="#000000" mask="url('#x16')"/></g><g id="x58" transform="translate(0,170)"><defs><path id="x27" d="M171.319631,29.9364358 C205.706337,35.3665707 232,65.13854 232,101.051724 L232,110 L32,110 L32,101.051724 C32,65.1380521 58.2943778,35.3657617 92.6817711,29.9362145 C93.5835973,35.0053598 96.116393,39.8238432 100.236125,43.5389794 L100.236125,43.5389794 L129.321203,69.7676333 C130.843316,71.1402598 133.156684,71.1402598 134.678797,69.7676333 L134.678797,69.7676333 L163.763875,43.5389794 C164.189462,43.1551884 164.601167,42.7562772 164.998197,42.3430127 C168.414164,38.7873666 170.517305,34.4520434 171.319628,29.9364354 Z"/></defs><mask id="x30" fill="#FFFFFF"><use xlink:href="#x27"/></mask><use id="x57" fill="#E6E6E6" fill-rule="evenodd" xlink:href="#x27"/><g id="x59" mask="url('#x30')" fill-rule="evenodd" fill="#3C4F5C"><rect id="x60" x="0" y="0" width="264" height="110"/></g></g><g id="x56" transform="translate(76,82)" fill="#000000"><g id="x48" transform="translate(2,52)"><defs><path id="x15" d="M35.117844,15.1280772 C36.1757121,24.6198025 44.2259873,32 54,32 C63.8042055,32 71.8740075,24.574136 72.8917593,15.0400546 C72.9736685,14.272746 72.1167429,13 71.042767,13 C56.1487536,13 44.7379213,13 37.0868244,13 C36.0066168,13 35.0120058,14.1784435 35.117844,15.1280772 Z"/><rect id="x26" x="39" y="2" width="31" height="16" rx="5"/></defs><mask id="x28" fill="#FFFFFF"><use xlink:href="#x15"/></mask><use id="x47" fill-opacity="0.7" fill="#000000" fill-rule="evenodd" xlink:href="#x15"/><use id="x46" stroke-width="1" fill-rule="evenodd" mask="url('#x28')" fill="#FFFFFF" xlink:href="#x26"/><g id="x45" stroke-width="1" fill-rule="evenodd" mask="url('#x28')" fill="#FF4F6D"><g transform="translate(38,24)"><circle cx="11" cy="11" r="11"/><circle cx="21" cy="11" r="11"/></g></g></g><g id="x44" transform="translate(28,40)" fill-opacity="0.16"><path id="x43" d="M16,8 C16,12.418278 21.372583,16 28,16 L28,16 C34.627417,16 40,12.418278 40,8"/></g><g id="x51" transform="translate(0,8)" fill-opacity="0.6"><path id="x50" d="M16.1601674,22.4473116 C18.006676,18.648508 22.1644225,16 26.9975803,16 C31.8136766,16 35.9591217,18.629842 37.8153518,22.4071242 C38.3667605,23.5291977 37.5821037,24.4474817 36.790607,23.7670228 C34.3395063,21.6597833 30.8587163,20.3437884 26.9975803,20.3437884 C23.2572061,20.3437884 19.8737584,21.5787519 17.4375392,23.5716412 C16.5467928,24.3002944 15.6201012,23.5583844 16.1601674,22.4473116 Z"/><path id="x49" d="M74.1601674,22.4473116 C76.006676,18.648508 80.1644225,16 84.9975803,16 C89.8136766,16 93.9591217,18.629842 95.8153518,22.4071242 C96.3667605,23.5291977 95.5821037,24.4474817 94.790607,23.7670228 C92.3395063,21.6597833 88.8587163,20.3437884 84.9975803,20.3437884 C81.2572061,20.3437884 77.8737584,21.5787519 75.4375392,23.5716412 C74.5467928,24.3002944 73.6201012,23.5583844 74.1601674,22.4473116 Z"/></g><g id="x55" fill-opacity="0.6"><g id="x54" transform="translate(12,0)"><path id="x53" d="M3.97579559,17.1279169 C5.47099148,7.60476158 18.0585488,1.10867597 27.1635167,5.30104271 C28.1668367,5.76301969 29.3546946,5.32417444 29.8166716,4.32085442 C30.2786486,3.3175344 29.8398033,2.12967649 28.8364833,1.66769952 C17.3488212,-3.62177466 1.93575948,4.3324746 0.0242044059,16.507492 C-0.147121205,17.5986938 0.598585765,18.6221744 1.68978754,18.7935 C2.78098932,18.9648257 3.80446998,18.2191187 3.97579559,17.1279169 Z" fill-rule="nonzero"/><path id="x52" d="M61.9757956,17.1279169 C63.4709915,7.60476158 76.0585488,1.10867597 85.1635167,5.30104271 C86.1668367,5.76301969 87.3546946,5.32417444 87.8166716,4.32085442 C88.2786486,3.3175344 87.8398033,2.12967649 86.8364833,1.66769952 C75.3488212,-3.62177466 59.9357595,4.3324746 58.0242044,16.507492 C57.8528788,17.5986938 58.5985858,18.6221744 59.6897875,18.7935 C60.7809893,18.9648257 61.80447,18.2191187 61.9757956,17.1279169 Z" fill-rule="nonzero" transform="translate(73.000097, 9.410436) scale(-1, 1) translate(-73.000097, -9.410436)"/></g></g></g><g id="x0" stroke-width="1" fill-rule="evenodd"><defs><rect id="x23" x="0" y="0" width="264" height="280"/><path id="x20" d="M8.46130289,88.6935361 C8.16088005,89.7438903 8,90.8531574 8,92 L8,105 C8,111.018625 12.4308707,116.002364 18.2085808,116.867187 C19.9518066,137.114792 32.4692178,154.282984 50,162.610951 L50,181 L46,181 L46,181 C30.3810228,181 15.9236322,185.973344 4.12503673,194.422823 C1.45272918,186.776619 1.52589027e-14,178.557961 1.42108547e-14,170 L0,74 L0,74 C-5.00501776e-15,33.1309285 33.1309285,7.50752664e-15 74,0 L74,0 L74,0 C114.869071,-7.50752664e-15 148,33.1309285 148,74 L148,170 C148,178.557961 146.547271,186.776619 143.874963,194.422823 C132.076368,185.973344 117.618977,181 102,181 L102,181 L98,181 L98,162.610951 C115.530782,154.282984 128.048193,137.114792 129.791419,116.867187 C135.569129,116.002364 140,111.018625 140,105 L140,92 C140,90.3107559 139.650957,88.7030352 139.021057,87.2450254 C126.064756,85.0568849 111.478699,79.7686298 97.1489304,71.4953343 C85.0171781,64.4910638 74.6464677,56.2579416 66.6695083,47.752196 C70.0963393,55.6604321 74.2459335,62.5880409 79.118291,68.5350224 C66.4431108,63.0120855 57.8126345,54.1324394 53.2268621,41.8960843 C52.8490267,42.8180234 52.455505,43.738913 52.0461952,44.6582378 C42.206947,66.7575512 25.5911314,82.6819966 8.46130289,88.6935361 Z"/><path id="x14" d="M65.1802189,77.7372986 C67.3631845,76.1045334 80.4065113,75.4786511 82.757829,74.0894494 C83.4916461,73.6553857 84.0610723,73.215719 84.4997781,72.7800074 C84.938814,73.215719 85.5085703,73.6553857 86.2423874,74.0894494 C88.593375,75.4786511 101.636702,76.1045334 103.819667,77.7372986 C106.030032,79.3908276 107.643571,83.1846831 107.466966,86.15095 C107.255041,89.7101408 103.361486,98.2028927 93.6723269,99.1811016 C91.5576925,96.8281927 88.2368647,95.3104528 84.4997781,95.3104528 C80.7633517,95.3104528 77.4421938,96.8281927 75.3275594,99.1811016 C65.6387308,98.2028927 61.7451757,89.7101408 61.5332501,86.15095 C61.3566455,83.1846831 62.9701849,79.3908276 65.1802189,77.7372986 M103.141638,94.9063813 C103.142958,94.9057221 103.144609,94.905063 103.145929,94.9047334 C103.144278,94.905063 103.142958,94.9057221 103.141638,94.9063813 M65.8453747,94.9014375 C65.8493359,94.9030855 65.8565982,94.9057221 65.8618798,94.9076997 C65.8565982,94.9057221 65.8509864,94.9034151 65.8453747,94.9014375 M144.86259,55.9853335 C144.47439,50.0303878 143.277769,44.1519058 142.233986,38.2862777 C141.952739,36.7072349 140.423706,26 139.734783,26 C139.502391,35.1094058 138.701893,44.0803858 137.669664,53.1393651 C137.361018,55.8475668 137.037848,58.5564277 136.825262,61.2741874 C136.653609,63.4695546 136.959614,66.1220564 136.427819,68.2455739 C135.749129,70.9524573 132.348087,73.4783984 129.702978,74.410795 C123.102915,76.7373371 117.597802,67.1077689 111.960977,64.2911336 C104.643272,60.6347152 92.0637391,59.7639895 84.5816434,64.5297918 C76.9361472,59.7639895 64.356614,60.6347152 57.0389092,64.2911336 C51.4024147,67.1077689 45.8969708,76.7373371 39.2972383,74.410795 C36.6521296,73.4783984 33.2504268,70.9524573 32.572397,68.2455739 C32.0402723,66.1220564 32.346277,63.4695546 32.174954,61.2741874 C31.9623682,58.5564277 31.6388681,55.8475668 31.3302226,53.1393651 C30.2983232,44.0803858 29.4974953,35.1094058 29.2654335,26 C28.5761802,26 27.0468169,36.7072349 26.7658999,38.2862777 C25.7221169,44.1519058 24.5258266,50.0303878 24.1376265,55.9853335 C23.738533,62.1047422 24.2148704,68.1674622 25.4695887,74.1632765 C26.0687242,77.0277016 26.7685407,79.8756475 27.518863,82.7041478 C28.352701,85.8467429 27.198994,91.9661516 27.5723395,95.1921317 C28.2787581,101.29572 31.1542781,113.199679 34.3833375,118.45096 C35.9440605,120.989096 37.7734867,122.573742 39.816489,124.619148 C41.7825775,126.58809 42.6038717,129.640049 44.7260985,131.73687 C48.6820428,135.645092 54.4456266,137.971304 60.3656788,138.543134 C65.6773527,143.050212 74.505605,146 84.4997781,146 C94.4946114,146 103.322534,143.050212 108.634538,138.543134 C114.55393,137.971304 120.317843,135.645092 124.274118,131.73687 C126.396015,129.640049 127.217309,126.58809 129.183727,124.619148 C131.2264,122.573742 133.055826,120.989096 134.616879,118.45096 C137.845608,113.199679 140.721458,101.29572 141.427547,95.1921317 C141.800892,91.9661516 140.647185,85.8467429 141.481353,82.7041478 C142.231676,79.8756475 142.931162,77.0277016 143.530628,74.1632765 C144.784686,68.1674622 145.261353,62.1047422 144.86259,55.9853335 Z"/></defs><mask id="x29" fill="#FFFFFF"><use xlink:href="#x23"/></mask><g id="x2"/><g id="x4" mask="url('#x29')"><g transform="translate(-1,0)"><g id="x3" stroke-width="1" fill="none" fill-rule="evenodd" transform="translate(59,18)"><mask id="x32" fill="#FFFFFF"><use xlink:href="#x20"/></mask><use fill="#ECC797" xlink:href="#x20"/><g id="x5" mask="url('#x32')" fill="#A55728"><g transform="translate(0,0) " id="x6"><rect x="0" y="0" width="264" height="280"/></g></g> </g><path id="x1" d="M59,102.418954 L59,108.837908 C78.9453743,105.750496 99.5895621,88.3902571 111.046195,62.6582378 C111.455505,61.738913 111.849027,60.8180234 112.226862,59.8960843 C116.231662,70.5822127 123.321236,78.70828 133.495584,84.2742862 C134.956498,86.4697241 136.497401,88.5566361 138.118291,90.5350224 C125.443111,85.0120855 116.812635,76.1324394 112.226862,63.8960843 C111.849027,64.8180234 111.455505,65.738913 111.046195,66.6582378 C99.5895621,92.3902571 78.9453743,109.750496 59,112.837908 L59,102.418954 Z M207,101.140388 L207,110.280776 C192.046922,109.412723 173.901259,103.744646 156.14893,93.4953343 C145.87623,87.5643877 136.866205,80.7523483 129.502994,73.639773 C128.137922,71.1289501 126.860094,68.4997578 125.669508,65.752196 C133.646468,74.2579416 144.017178,82.4910638 156.14893,89.4953343 C173.901259,99.7446457 192.046922,105.412723 207,106.280776 L207,101.140388 Z" fill-opacity="0.16" fill="#000000" fill-rule="evenodd"/><g id="x9" transform="translate(49,72)"><defs><path id="x21" d='M105.017591,94.1296214 C101.150441,99.7213834 98.257542,95.9467308 94.1374777,92.8762163 C91.6567227,91.0272796 87.9608129,88.7275108 84.5044337,88.8410391 C81.0477114,88.7275108 77.3518016,91.0272796 74.8710466,92.8762163 C70.7509822,95.9467308 67.8580835,99.7213834 63.9909333,94.1296214 C61.0884259,89.9323547 62.3028943,82.8739117 65.014944,78.9027173 C68.8738581,73.2512381 74.1088724,75.9847769 79.9622738,75.3400279 C81.5538829,75.1648137 83.1526985,74.7228407 84.5044337,74 C85.856169,74.7228407 87.4546414,75.1648137 89.0462504,75.3400279 C94.899995,75.9847769 100.134666,73.2512381 103.993923,78.9027173 C106.70563,82.8739117 107.920098,89.9323547 105.017591,94.1296214 M140.39109,26 C136.966521,40.0748212 135.393023,54.4337754 132.909944,68.6711471 C132.392536,71.6390145 131.826063,74.5963095 131.224594,77.5496398 C131.098329,78.1697764 130.973781,80.4725746 130.362704,80.7643064 C128.511632,81.6484223 124.739149,76.9466834 123.730409,75.8851496 C121.196893,73.219256 118.684993,70.5292442 115.599415,68.437233 C109.364783,64.2102603 102.065485,61.7108818 94.4700836,61.117837 C91.2922091,60.8693859 86.9951134,61.3025234 84.000116,63.1104016 C81.0051185,61.3025234 76.7080229,60.8693859 73.5298053,61.117837 C65.9344039,61.7108818 58.6351055,64.2102603 52.4004739,68.437233 C49.3148957,70.5292442 46.8033387,73.219256 44.2694796,75.8851496 C43.2607395,76.9466834 39.4882573,81.6484223 37.6371849,80.7643064 C37.0261079,80.4725746 36.9015594,78.1697764 36.7752954,77.5496398 C36.1738255,74.5963095 35.6073527,71.6390145 35.0899445,68.6711471 C32.6072086,54.4337754 31.0337113,40.0748212 27.6091415,26 C26.6127533,26 25.7385119,44.7478165 25.6273446,46.4945731 C25.174784,53.5889755 24.6463963,60.5254529 25.3216346,67.6261326 C26.485803,79.8749043 27.6993791,95.2339402 37.032627,104.58753 C45.4659003,113.039493 57.7103052,114.806417 68.2713185,120.141327 C69.631059,120.828202 71.4347824,121.676306 73.3798667,122.37111 C75.4289129,123.934171 79.4926946,125 84.1740722,125 C89.0846465,125 93.3155222,123.827456 95.2540874,122.137856 C96.9548781,121.49261 98.5180822,120.752874 99.7285704,120.141327 C110.288776,114.805245 122.533989,113.039493 130.967262,104.58753 C140.30051,95.2339402 141.514086,79.8749043 142.678597,67.6261326 C143.353493,60.5254529 142.825105,53.5889755 142.372887,46.4945731 C142.261377,44.7478165 141.387136,26 140.39109,26 Z' /></defs><mask id="x31" fill="#FFFFFF"><use xlink:href="#x21"/></mask><use id="x8" fill="#252E32" fill-rule="evenodd" xlink:href="#x21"/><g id="x61" mask="url('#x31')" fill="#2C1B18"><g transform="translate(-32,0)" id="x7"><rect x="0" y="0" width="264" height="244"/></g></g></g><g id="x11" fill="none" transform="translate(62,85)"><defs><path id="x18" d="M80.4646192,16.3941179 C84.3801509,8.45869677 92.552602,3 102,3 C110.919691,3 118.702887,7.86591082 122.839921,15.0880638 C123.050197,15.0306504 123.271519,15 123.5,15 L131.5,15 C132.880712,15 134,16.1192881 134,17.5 C134,18.8807119 132.880712,20 131.5,20 L124.963126,20 C125.637355,22.2145921 126,24.5649459 126,27 C126,40.254834 115.254834,51 102,51 C88.745166,51 78,40.254834 78,27 C78,25.5781066 78.1236513,24.1850936 78.3607874,22.8311273 C78.2762458,18.4553035 74.9135957,15 70.8624171,15 C67.1256697,15 63.9747186,17.9397535 63.4417635,21.8300629 C63.8073299,23.4951922 64,25.2250958 64,27 C64,40.254834 53.254834,51 40,51 C26.745166,51 16,40.254834 16,27 C16,24.5649459 16.3626451,22.2145921 17.0368738,20 L10.5,20 C9.11928813,20 8,18.8807119 8,17.5 C8,16.1192881 9.11928813,15 10.5,15 L10.5,15 L18.5,15 C18.728481,15 18.9498033,15.0306504 19.1600793,15.0880638 C23.2971127,7.86591082 31.0803092,3 40,3 C49.3521568,3 57.4549431,8.34919095 61.415666,16.15488 C63.4929212,13.0392725 66.9494432,11 70.8624171,11 C74.8746823,11 78.4070368,13.1440781 80.4646192,16.3941179 Z M40,47 C51.045695,47 60,38.045695 60,27 C60,15.954305 51.045695,7 40,7 C28.954305,7 20,15.954305 20,27 C20,38.045695 28.954305,47 40,47 Z M102,47 C113.045695,47 122,38.045695 122,27 C122,15.954305 113.045695,7 102,7 C90.954305,7 82,15.954305 82,27 C82,38.045695 90.954305,47 102,47 Z"/><filter id="x42" x="-0.8%" y="-2.1%" width="101.6%" height="108.3%" filterUnits="objectBoundingBox" ><feOffset in="SourceAlpha" dx="0" dy="2" result="shadowOffsetOuter1"/><feColorMatrix in="shadowOffsetOuter1" values="0 0 0 0 0 0 0 0 0 0 0 0 0 0 0 0 0 0 0.1 0" type="matrix"/></filter></defs><g id="x10"><use fill="#000000" fill-opacity="1" filter="url('#x42')" xlink:href="#x18"/><use fill="#252C2F" fill-rule="evenodd" xlink:href="#x18"/></g></g> </g></g></g> </g></g></g></g></svg>